# xmcd
#
# Track frame offsets: 
#        150
#        17490
#        35967
#        52057
#        66680
#        84195
#        97472
#        108350
#        127082
#        147262
#
# Disc length: 2301 seconds
#
# Revision: 3
# Processed by: cddbd v1.4PL0 Copyright (c) Steve Scherf et al.
# Submitted via: ExactAudioCopy v0.90b4
#
DISCID=9908fb0a
DTITLE=Kathy Mattea - Good News
DYEAR=1993
DGENRE=Country
TTITLE0=What A Wonderful Beginning
TTITLE1=There's A New Kid In Town
TTITLE2=Brightest And Best
TTITLE3=Mary, Did You Know
TTITLE4=The Star
TTITLE5=Emmanuel
TTITLE6=Somebody Talkin' About Jesus
TTITLE7=Nothing But A Child
TTITLE8=Christ Child's Lullaby
TTITLE9=Good News
EXTD=
EXTT0=
EXTT1=
EXTT2=
EXTT3=
EXTT4=
EXTT5=
EXTT6=
EXTT7=
EXTT8=
EXTT9=
PLAYORDER=
